<svg xmlns="http://www.w3.org/2000/svg" viewBox="0 0 512 512">
  <!-- Background circle -->
  <circle cx="256" cy="256" r="256" fill="#E91E8C"/>

  <!-- Lotus petals - outer ring -->
  <ellipse cx="256" cy="160" rx="38" ry="80" fill="#FFB3D9" opacity="0.85" transform="rotate(0 256 256)"/>
  <ellipse cx="256" cy="160" rx="38" ry="80" fill="#FFB3D9" opacity="0.85" transform="rotate(45 256 256)"/>
  <ellipse cx="256" cy="160" rx="38" ry="80" fill="#FFB3D9" opacity="0.85" transform="rotate(90 256 256)"/>
  <ellipse cx="256" cy="160" rx="38" ry="80" fill="#FFB3D9" opacity="0.85" transform="rotate(135 256 256)"/>
  <ellipse cx="256" cy="160" rx="38" ry="80" fill="#FFB3D9" opacity="0.85" transform="rotate(180 256 256)"/>
  <ellipse cx="256" cy="160" rx="38" ry="80" fill="#FFB3D9" opacity="0.85" transform="rotate(225 256 256)"/>
  <ellipse cx="256" cy="160" rx="38" ry="80" fill="#FFB3D9" opacity="0.85" transform="rotate(270 256 256)"/>
  <ellipse cx="256" cy="160" rx="38" ry="80" fill="#FFB3D9" opacity="0.85" transform="rotate(315 256 256)"/>

  <!-- Lotus petals - inner ring -->
  <ellipse cx="256" cy="188" rx="28" ry="60" fill="#FF69B4" opacity="0.95" transform="rotate(22.5 256 256)"/>
  <ellipse cx="256" cy="188" rx="28" ry="60" fill="#FF69B4" opacity="0.95" transform="rotate(67.5 256 256)"/>
  <ellipse cx="256" cy="188" rx="28" ry="60" fill="#FF69B4" opacity="0.95" transform="rotate(112.5 256 256)"/>
  <ellipse cx="256" cy="188" rx="28" ry="60" fill="#FF69B4" opacity="0.95" transform="rotate(157.5 256 256)"/>
  <ellipse cx="256" cy="188" rx="28" ry="60" fill="#FF69B4" opacity="0.95" transform="rotate(202.5 256 256)"/>
  <ellipse cx="256" cy="188" rx="28" ry="60" fill="#FF69B4" opacity="0.95" transform="rotate(247.5 256 256)"/>
  <ellipse cx="256" cy="188" rx="28" ry="60" fill="#FF69B4" opacity="0.95" transform="rotate(292.5 256 256)"/>
  <ellipse cx="256" cy="188" rx="28" ry="60" fill="#FF69B4" opacity="0.95" transform="rotate(337.5 256 256)"/>

  <!-- Center circle -->
  <circle cx="256" cy="256" r="44" fill="#FFE4F0"/>
  <circle cx="256" cy="256" r="30" fill="#E91E8C"/>
  <circle cx="256" cy="256" r="16" fill="#FFE4F0"/>
</svg>
